<?xml version="1.0" encoding="UTF-8" standalone="no"?>
<!DOCTYPE svg PUBLIC "-//W3C//DTD SVG 1.1//EN" "http://www.w3.org/Graphics/SVG/1.1/DTD/svg11.dtd">
<svg width="100%" height="100%" viewBox="0 0 525 120" version="1.1" xmlns="http://www.w3.org/2000/svg" xmlns:xlink="http://www.w3.org/1999/xlink" xml:space="preserve" xmlns:serif="http://www.serif.com/" style="fill-rule:evenodd;clip-rule:evenodd;stroke-linejoin:round;stroke-miterlimit:2;">
    <g transform="matrix(2.22727,0,0,2.12121,-158.197,-45.0356)">
        <path d="M98.914,43.267C98.914,35.816 94.068,32.02 85.628,32.02L72.526,32.02C72.226,32.02 71.925,32.32 71.925,32.619L72.276,49.52L71.925,66.414C71.925,66.714 72.226,67.014 72.526,67.014L79.234,67.014C79.535,67.014 79.834,66.714 79.834,66.414L79.585,54.864L85.578,54.864C93.919,54.864 98.914,50.619 98.914,43.267ZM91.571,43.417C91.571,47.619 89.073,49.32 86.127,49.32L79.484,49.32L79.734,37.564L85.927,37.564C89.523,37.564 91.571,39.415 91.571,43.417Z" style="fill:white;fill-rule:nonzero;"/>
        <path d="M126.414,54.067C126.414,45.864 121.668,40.62 113.267,40.62C104.867,40.62 100.021,46.014 100.021,54.217C100.021,62.42 104.867,67.664 113.267,67.664C121.668,67.664 126.414,62.27 126.414,54.067ZM107.664,54.267C107.664,48.465 109.415,45.664 113.217,45.614C116.92,45.614 118.721,48.415 118.721,54.217C118.721,60.119 116.97,62.67 113.267,62.67C109.515,62.67 107.664,60.069 107.664,54.267Z" style="fill:white;fill-rule:nonzero;"/>
        <path d="M152.764,59.18C152.764,48.22 135.914,53.23 135.914,48.321C135.914,46.116 137.465,45.214 139.917,45.214C142.919,45.214 144.27,46.517 144.72,48.621C144.82,48.972 145.07,49.223 145.47,49.223L151.216,49.223C151.515,49.223 151.815,48.922 151.765,48.621C151.216,43.316 146.72,40.67 140.017,40.67C133.067,40.67 128.771,43.516 128.771,48.872C128.771,59.678 145.621,54.933 145.621,59.828C145.621,61.823 144.02,62.97 141.068,62.97C137.615,62.97 135.715,61.773 135.465,58.98C135.465,58.631 135.165,58.382 134.815,58.382L128.771,58.382C128.471,58.382 128.171,58.681 128.171,58.98C128.521,64.618 133.766,67.614 140.918,67.614C147.669,67.614 152.764,64.568 152.764,59.18Z" style="fill:white;fill-rule:nonzero;"/>
        <path d="M170.414,62.22C170.414,61.92 170.114,61.72 169.814,61.77C169.114,61.97 168.214,62.17 167.064,62.17C165.414,62.17 164.314,61.47 164.314,59.269L164.264,46.564L169.864,46.564C170.164,46.564 170.464,46.264 170.464,45.964L170.464,41.869C170.464,41.57 170.164,41.27 169.864,41.27L164.314,41.27L164.414,35.42C164.414,35.12 164.114,34.82 163.815,34.82L157.37,34.82C157.07,34.82 156.771,35.12 156.771,35.42L156.821,41.27L154.121,41.27C153.821,41.27 153.521,41.57 153.521,41.869L153.521,45.964C153.521,46.264 153.821,46.564 154.121,46.564L156.871,46.564L156.821,59.469C156.821,65.316 160.967,67.514 165.314,67.514C166.864,67.514 168.414,67.164 169.864,66.715C170.164,66.615 170.414,66.265 170.414,65.916L170.414,62.22Z" style="fill:white;fill-rule:nonzero;"/>
        <path d="M197.964,56.267C197.964,52.014 195.566,49.166 191.32,48.067C194.616,46.969 197.064,44.719 197.064,40.516C197.014,35.066 192.418,31.52 185.621,31.52C178.071,31.52 173.521,35.116 173.021,41.667C172.971,41.967 173.271,42.267 173.571,42.267L179.621,42.267C179.971,42.267 180.221,42.017 180.271,41.667C180.571,38.265 182.171,36.614 185.221,36.614C187.721,36.614 189.621,38.565 189.621,41.267C189.621,44.069 187.571,46.02 182.971,46.02L182.071,46.02C181.771,46.02 181.471,46.32 181.471,46.619L181.471,50.264C181.471,50.564 181.771,50.864 182.071,50.864L182.971,50.864C188.171,50.864 190.32,52.515 190.221,56.517C190.121,60.219 188.021,62.42 184.971,62.42C181.671,62.47 179.971,60.319 179.721,56.617C179.721,56.267 179.471,56.017 179.121,56.017L172.971,56.017C172.671,56.017 172.371,56.317 172.421,56.617C173.021,63.718 177.121,67.514 184.771,67.514C191.869,67.514 197.964,63.469 197.964,56.267Z" style="fill:white;fill-rule:nonzero;"/>
        <path d="M228.064,49.617C228.064,37.314 222.519,31.27 214.117,31.27C205.666,31.27 200.221,37.464 200.221,49.617C200.221,61.32 205.716,67.764 214.117,67.764C222.569,67.764 228.064,61.32 228.064,49.617ZM208.064,49.617C208.064,40.764 210.115,37.114 214.117,37.114C218.07,37.114 220.221,40.915 220.221,49.617C220.221,58.319 218.07,61.92 214.167,61.92C210.265,61.92 208.064,58.269 208.064,49.617Z" style="fill:white;fill-rule:nonzero;"/>
        <path d="M245.415,67.014C245.715,67.014 246.014,66.714 246.014,66.414L245.615,50.917L246.014,32.62C246.014,32.32 245.715,32.02 245.415,32.02L239.22,32.02C238.82,32.02 238.47,32.22 238.27,32.57C236.771,35.22 234.421,37.219 231.171,38.419C230.871,38.569 230.621,38.869 230.621,39.219L230.621,43.818C230.621,44.118 230.921,44.318 231.221,44.268C233.921,43.418 236.371,42.168 238.17,40.419L238.32,50.217L238.021,66.414C238.021,66.714 238.32,67.014 238.62,67.014L245.415,67.014Z" style="fill:white;fill-rule:nonzero;"/>
    </g>
    <g id="boxSpaced.afdesign" transform="matrix(0.0766137,0,0,0.0766137,474.365,60)">
        <g transform="matrix(1,0,0,1,-750,-750)">
            <path d="M141.774,464.365C246.621,515.489 662.178,724.196 730.074,758.306L730.074,758.306L732.721,1349.81C625.894,1295.88 210.213,1086.05 142.367,1051.8C142.126,980.967 140.796,572.939 141.774,464.365Z" style="fill:white;"/>
            <path d="M764.385,759.099L1355.98,464.628C1355.98,464.628 1353.9,1051.83 1353.9,1051.83C1353.9,1051.83 767.029,1349.86 767.029,1349.86C767.029,1349.86 764.385,759.099 764.385,759.099L764.385,759.099Z" style="fill:white;"/>
            <g transform="matrix(1,0,0,1,0,-630)">
                <path d="M474.705,1222.83L1046.24,922.482C1046.24,922.482 1254.67,1026.01 1334.76,1065.8C1334.76,1065.8 747.194,1359.32 747.194,1359.32L474.705,1222.83Z" style="fill:white;"/>
            </g>
            <g transform="matrix(1,0,0,1,-311.883,-787.539)">
                <path d="M475.435,1223.33L1060.4,932.822C1096.73,950.779 1253.31,1028.19 1320.02,1061.17C1320.02,1061.17 746.415,1360.22 746.415,1360.22L475.435,1223.33Z" style="fill:white;"/>
            </g>
        </g>
    </g>
</svg>
